
<svg width="124" height="37" viewBox="0 0 124 37" fill="none" xmlns="http://www.w3.org/2000/svg">
<g clip-path="url(#clip0)">
<ellipse cx="18.4576" cy="18.4576" rx="18.4576" ry="18.4576" fill="#0B30E1"/>
<circle cx="18.3842" cy="18.384" r="11.7247" stroke="white" stroke-width="3.06505"/>
<path d="M17.5028 20.2012V23.5739H15.1065V13.6335H19.0731C19.8331 13.6335 20.5045 13.7746 21.0871 14.0568C21.6742 14.3344 22.1271 14.7326 22.4457 15.2515C22.7688 15.7658 22.9304 16.3507 22.9304 17.0061C22.9304 17.9756 22.5822 18.7516 21.8859 19.3342C21.194 19.9122 20.2428 20.2012 19.0321 20.2012H17.5028ZM17.5028 18.3511H19.0731C19.5373 18.3511 19.89 18.235 20.1313 18.0029C20.377 17.7707 20.4999 17.443 20.4999 17.0198C20.4999 16.5555 20.3748 16.1846 20.1244 15.9069C19.8741 15.6293 19.5328 15.4882 19.1004 15.4836H17.5028V18.3511Z" fill="white"/>
</g>
<path d="M47.3706 22.0447H48.6689C51.0577 22.0447 52.5247 20.9022 52.5247 18.7212C52.5247 16.5401 51.0577 15.3976 48.6689 15.3976H44.4236V24.7191H47.3706V22.0447ZM47.3706 19.604V17.8383H48.5131C49.2791 17.8383 49.6166 18.1889 49.6166 18.7212C49.6166 19.2534 49.2791 19.604 48.5131 19.604H47.3706ZM58.3877 21.8629H58.855L60.4908 24.7191H63.8663L61.828 21.4086C62.9186 20.8763 63.5417 19.8896 63.5417 18.6303C63.5417 16.579 62.0747 15.3976 59.6859 15.3976H55.4406V24.7191H58.3877V21.8629ZM58.3877 19.578V17.8383H59.5301C60.2961 17.8383 60.6336 18.1889 60.6336 18.7212C60.6336 19.2275 60.2961 19.578 59.5301 19.578H58.3877ZM66.2846 20.0584C66.2846 22.8496 68.193 24.8749 70.9583 24.8749C73.7236 24.8749 75.632 22.8496 75.632 20.0584C75.632 17.2671 73.7236 15.2418 70.9583 15.2418C68.193 15.2418 66.2846 17.2671 66.2846 20.0584ZM72.659 20.0584C72.659 21.4994 71.9709 22.3433 70.9583 22.3433C69.9457 22.3433 69.2576 21.4994 69.2576 20.0584C69.2576 18.6173 69.9457 17.7734 70.9583 17.7734C71.9709 17.7734 72.659 18.6173 72.659 20.0584ZM86.1538 17.8643V15.3976H77.9618V17.8643H80.5842V24.7191H83.5313V17.8643H86.1538ZM88.4834 20.0584C88.4834 22.8496 90.3918 24.8749 93.1571 24.8749C95.9224 24.8749 97.8309 22.8496 97.8309 20.0584C97.8309 17.2671 95.9224 15.2418 93.1571 15.2418C90.3918 15.2418 88.4834 17.2671 88.4834 20.0584ZM94.8578 20.0584C94.8578 21.4994 94.1698 22.3433 93.1571 22.3433C92.1445 22.3433 91.4564 21.4994 91.4564 20.0584C91.4564 18.6173 92.1445 17.7734 93.1571 17.7734C94.1698 17.7734 94.8578 18.6173 94.8578 20.0584ZM109.525 15.3976H106.707V19.8117L103.721 15.3976H100.865V24.7191H103.682V19.9805L106.98 24.7191H109.525V15.3976ZM121.569 15.3976H118.751V19.8117L115.765 15.3976H112.909V24.7191H115.726V19.9805L119.024 24.7191H121.569V15.3976Z" fill="#0B30E1"/>
<defs>
<clipPath id="clip0">
<rect width="36.9153" height="36.9153" fill="white"/>
</clipPath>
</defs>
</svg>
